        <svg xmlns="http://www.w3.org/2000/svg" width="24" height="24" viewBox="0 0 289 77" class="w-28 h-8 fill-black" role="img">
    <g clip-path="url(#clip0_151_176)">
        <path d="M286.8 1.6C285.8 0.599998 284.6 0.0999985 283.2 0.0999985C281.8 0.0999985 280.6 0.599998 279.6 1.6C278.6 2.6 278.1 3.8 278.1 5.3C278.1 6.8 278.6 7.9 279.6 8.9C280.6 9.9 281.8 10.4 283.2 10.4C284.6 10.4 285.8 9.9 286.8 8.9C287.8 7.9 288.3 6.7 288.3 5.2C288.3 3.7 287.8 2.5 286.8 1.5V1.6ZM286.2 8.5C285.3 9.4 284.3 9.8 283.2 9.8C282.1 9.8 281 9.3 280.1 8.4C279.3 7.5 278.9 6.4 278.9 5.3C278.9 4.2 279.3 3 280.2 2.1C281 1.2 282.1 0.799998 283.3 0.799998C284.5 0.799998 285.5 1.3 286.3 2.2C287.1 3.1 287.6 4.2 287.6 5.3C287.6 6.4 287.2 7.6 286.3 8.5H286.2Z"/>
        <path d="M285 6.8L284 5.5C284.8 5.2 285.2 4.7 285.2 3.9C285.2 3.1 285 3.1 284.7 2.9C284.4 2.7 283.9 2.5 283.4 2.5H280.7V2.7C281 2.7 281.2 2.7 281.3 2.9C281.3 2.9 281.4 3.2 281.4 3.5V7.1C281.4 7.4 281.4 7.6 281.3 7.7C281.3 7.7 281 7.8 280.7 7.8V8H283.1V7.8C282.8 7.8 282.5 7.8 282.5 7.6C282.5 7.6 282.4 7.3 282.4 7.1V5.6H283.2C283.6 6.2 283.9 6.8 284.3 7.3C284.6 7.8 284.8 8 285 8H286C285.6 7.5 285.2 7.1 285 6.8ZM283 5.3H282.3V2.8H282.9C283.7 2.8 284.1 3.2 284.1 4C284.1 4.8 283.7 5.4 283 5.4V5.3Z"/>
        <path d="M235.1 0.499999C235.1 0.299999 235 0.0999994 234.9 -5.92321e-07C234.8 -0.100001 234.4 -5.92321e-07 234.3 -5.92321e-07C233.9 0.0999994 233.9 -5.96046e-07 232.4 0.599999C230.9 1.2 230.1 1.5 228.4 2.1C225.2 3.2 221.5 4.3 217.5 5.2C216.9 5.3 216.4 5.9 216.4 6.6V7.5C216.4 7.9 216.6 8.3 216.9 8.5C217.2 8.8 217.6 8.9 218 8.8C218 8.8 219.4 8.6 219.9 8.6C221.6 8.6 222.8 8.9 223.2 9.6C223.5 10.1 223.9 11.3 223.9 13.7V68.8C223.9 70.9 226 72.7 230.4 74.5C234.5 76.2 238.6 77 242.8 77C251.2 77 258 74.1 263.2 68.3C268.3 62.6 270.9 55.6 270.9 47.6C270.9 39.6 268.9 33.9 264.9 29.2C260.9 24.4 256 22 250.3 22C244.6 22 241.5 23.5 238 26.4C236.9 27.3 235.9 28.3 235.1 29.2V4.2C235.1 4.2 235.1 4.2 235.1 0.499999ZM259.4 52.4C259.4 57.7 258.2 62.3 255.8 66C253.5 69.6 249.9 71.4 245 71.4C240.1 71.4 241 71 238.6 70.2C236.4 69.5 235.2 68.4 234.9 66.8V38.6C234.9 36.4 236 34.7 238.3 33.2C240.8 31.6 243.3 30.9 245.9 30.9C250.3 31 254.5 33.9 256.5 38.3C258.5 42.6 259.5 47.3 259.5 52.3L259.4 52.4Z"/>
        <path d="M216.4 68.4C216.4 67.9 216.1 67.4 215.6 67.2C215.1 67 214.6 67 214.1 67.2C213 68 212.4 68.3 212.2 68.4C209.4 69.6 208.5 67.6 208.3 67.1C208.1 66.6 207.9 65.5 207.9 63V40.8C207.9 35.7 207.2 31.9 205.7 29.2C203 24.3 197.8 21.7 190.3 21.7C182.8 21.7 179 23.2 175.6 26.2C172.2 29.2 170.5 32.2 170.5 35C170.5 37.8 171 37.9 172 39.2C173.1 40.5 174.6 41.2 176.5 41.2C178.4 41.2 178.8 40.9 179.7 40.4C181.4 39.4 182.2 37.7 182.2 35.3C182.2 32.9 182.2 34.6 181.9 33.1C181.7 31.8 181.6 31.2 181.6 31C181.6 29.6 182.3 28.5 183.7 27.7C185.3 26.8 186.9 26.4 188.6 26.4C192.2 26.4 194.5 27.5 195.6 29.6C196.3 31 196.6 33.5 196.6 37.1V41C196.6 41.1 196.6 41.3 196.4 41.3C186.5 45 180 47.9 176.7 50.1C171.1 53.8 168.3 58.6 168.3 64.3C168.3 70 169.6 71.1 172.1 73.5C174.6 75.9 177.6 77.1 181 77.1C184.4 77.1 187.6 76 191.1 74C192.7 73 194.6 71.7 196.7 70C196.9 69.8 197.2 70 197.2 70.2C197.5 71.8 198.1 73.2 198.8 74.3C200.1 76.2 202.2 77.1 205 77.1C207.8 77.1 209.6 76.3 211.9 74.7C213 74 214 73.1 214.9 72.1C215.5 71.4 216.1 70 216.1 68.5L216.4 68.4ZM187.8 50C190.1 48.6 193.1 47.2 196.5 46C196.7 46 197 46 197 46.3V62.2C197 64 196 65.4 194.1 66.7C191.5 68.3 188.8 68.9 186 68.5C182.2 67.4 180.3 64.7 180.3 60.5C180.3 56.3 182.8 53.2 187.9 50.1L187.8 50Z"/>
        <path d="M162.3 73.1C160.4 72.9 158.7 72.4 157.5 71.7C156.2 70.9 154.8 69.7 153.4 68L131.3 40.8C131.1 40.6 131.3 40.3 131.5 40.3C137 39.2 141.5 37.3 144.9 34.5C148.8 31.3 150.7 26.7 150.7 20.8C150.7 12 146.3 5.9 137.7 2.6C133.3 0.9 127.7 0 121.1 0H90.2C89.4 0 88.8 0.6 88.8 1.4V2.5C88.8 3.2 89.4 3.8 90.1 3.9C94.6 4.3 96.4 5.2 97 6C97.7 6.7 98.6 8.6 98.6 13.2V62.4C98.6 68 97.8 70.1 97.2 70.9C96.6 71.6 94.9 72.6 90.1 73.1C89.4 73.1 88.8 73.8 88.8 74.5V75.6C88.8 76.4 89.4 77 90.2 77H120.8C121.6 77 122.2 76.4 122.2 75.6V74.5C122.2 73.8 121.6 73.2 120.9 73.1C116.1 72.6 114.3 71.8 113.5 71.1C112.8 70.4 111.9 68.6 111.9 63.8V42.6C111.9 42.4 112 42.3 112.2 42.3L116.7 42.1C116.8 42.1 116.9 42.1 117 42.2L143.5 76.4C143.8 76.7 144.2 76.9 144.6 76.9H162.2C163 76.9 163.6 76.3 163.6 75.5V74.4C163.6 73.7 163.1 73.1 162.4 73L162.3 73.1ZM111.8 9.2C111.8 7.9 112 7 112.5 6.7C112.8 6.5 113.8 6.1 117.9 6.1C122 6.1 126.3 6.7 129 8C134.1 10.3 136.6 14.4 136.6 20.7C136.6 27 133.8 31.5 128.1 33.9C124.9 35.2 119.5 36 112.2 36.3C112 36.3 111.8 36.2 111.8 36V9.2Z"/>
        <path d="M73.1 32.2C69.2 32 64.1 30.1 56.2 18.1L55.6 17.2C52.4 12.3 49.7 8.1 40.9 8.7C37.2 9 34.4 10.2 32 11.4C30.6 12.1 29.3 12.7 27.9 13C24.2 13.9 21.9 13.8 19.9 13.7H19.7C19.4 13.7 19 13.7 18.7 13.7C10.7 13.4 6.5 9.7 4.6 1.3C4.4 0.600001 3.8 0.200001 3.1 0.200001C2.5 0.200001 1.9 0.600001 1.6 1.2C1.2 2.1 0.4 4.5 0.2 6.7C-0.8 16.9 3.1 23.6 10.8 24.6C14 25 22.5 25.1 31.4 16.5C33.4 14.5 35.4 13.4 36.7 13.6C38.1 13.8 38.3 14.1 38.9 16.5C39.1 17.4 39.4 18.3 39.7 19.3C45 34.2 57.3 36.6 64.8 36.6C72.3 36.6 70.8 36 70.9 36C71 36 72.2 35.7 73.5 35.1C74.2 34.8 74.6 34.2 74.5 33.5C74.5 32.8 73.8 32.2 73.1 32.2Z"/>
        <path d="M80.8 61.8C76.9 61.6 71.8 59.7 63.9 47.7L63.3 46.8C60.1 41.9 57.4 37.7 48.6 38.3C44.9 38.6 42.1 39.8 39.7 41C38.3 41.7 37 42.3 35.6 42.6C31.9 43.5 29.6 43.4 27.6 43.3C27.2 43.3 26.8 43.3 26.3 43.3C18.3 43 14.1 39.3 12.2 30.9C12 30.2 11.4 29.8 10.7 29.8C10.1 29.8 9.5 30.2 9.2 30.8C8.7 31.8 7.9 34.2 7.7 36.4C6.7 46.6 10.6 53.3 18.3 54.3C21.5 54.7 30.1 54.8 38.9 46.2C40.9 44.2 42.9 43.2 44.2 43.3C45.6 43.5 45.8 43.8 46.4 46.2C46.6 47 46.8 47.9 47.2 48.9C52.5 63.7 64.6 66.2 72 66.2C79.4 66.2 78.3 65.6 78.4 65.6C78.5 65.6 79.6 65.3 81 64.7C81.7 64.4 82.1 63.8 82 63.1C82 62.4 81.3 61.8 80.6 61.8H80.8Z"/>
    </g>
    <defs>
        <clipPath id="clip0_151_176">
            <rect width="288.3" height="77"/>
        </clipPath>
    </defs>
<title>logo</title></svg>
